<?xml version="1.0" encoding="utf-8"?>
<!-- Generator: Adobe Illustrator 24.3.0, SVG Export Plug-In . SVG Version: 6.00 Build 0)  -->
<svg version="1.1" id="Layer_1" xmlns="http://www.w3.org/2000/svg" xmlns:xlink="http://www.w3.org/1999/xlink" x="0px" y="0px"
	 viewBox="0 0 200 51.6" style="enable-background:new 0 0 200 51.6;" xml:space="preserve">
<style type="text/css">
	.st0{fill:#2B80C3;}
	.st1{fill:#EF4136;}
	.st2{fill:#FFFFFF;}
</style>
<g>
	<g>
		<path class="st0" d="M20.8,0C11.5,0,0.5,3.6,0.5,3.6s0,24.4,0,29.8c0,8.9,13.5,18.1,20.3,18.1c6.8,0,20.4-10.1,20.4-18.1
			c0-6,0-29.8,0-29.8S29.2,0,20.8,0z M40.2,33.1c0,7.7-12.9,17.3-19.4,17.2c-6.5,0-19.3-8.8-19.3-17.2c0-5.2,0-28.4,0-28.4
			S12,1.3,20.8,1.3c8,0,19.4,3.4,19.4,3.4S40.2,27.3,40.2,33.1z"/>
		<path class="st1" d="M38.5,24.5v8c0,7-11.8,15.8-17.7,15.8c-5,0-14.1-5.7-16.9-12.1c0.4,0,0.9,0,1.3,0c2.9,5.8,11,10.8,15.6,10.8
			c5.6,0,16.6-8.2,16.6-14.8v-6.6C37.9,25,38.3,24.7,38.5,24.5z"/>
		<path class="st0" d="M38.5,6.5c0,0,0,6.3,0,12.8v5.2c-0.2,0.2-0.6,0.5-1.1,0.9V32c0,6.6-11.1,14.8-16.6,14.8
			c-4.5,0-12.7-5-15.6-10.8c-0.4,0-0.9,0-1.3,0c-0.2-0.5-0.4-1.1-0.6-1.6c-0.2-0.7-0.2-1.3-0.2-2c0-4.7,0-25.9,0-25.9
			s9.6-3.1,17.7-3.1C28.1,3.4,38.5,6.5,38.5,6.5z"/>
		<path class="st0" d="M37.4,7.7c0,0,0,6.4,0,12.8C25,33.5,9.9,34.5,4.6,34.5c-0.3-0.8-0.4-1.6-0.4-2.4c0-4.4,0-24.4,0-24.4
			s9-3,16.6-3C27.6,4.7,37.4,7.7,37.4,7.7z"/>
		<path class="st1" d="M37.4,25.4v6.6c0,6.6-11.1,14.8-16.6,14.8c-4.5,0-12.7-5-15.6-10.8C23,36.2,33.9,28.4,37.4,25.4z"/>
		<path class="st2" d="M38.5,19.3v5.2c-0.2,0.2-0.6,0.5-1.1,0.9c-3.6,3-14.5,10.8-32.2,10.7c-0.4,0-0.9,0-1.3,0
			c-0.2-0.5-0.4-1.1-0.6-1.6c0.3,0,0.7,0,1.2,0c5.3,0.1,20.4-0.9,32.9-14C37.8,20.1,38.1,19.7,38.5,19.3z"/>
		<path class="st2" d="M4.4,7.5c0,0,11-2.9,16.6-2.7c5.3,0.2,8.4,0.5,16.4,2.7V18c0,0-7.9-2.3-11.4-9.4c0,0-0.9-0.8-3.5,3
			c-2,2.9-1.8,4.7-1.8,4.7s-3.2-3-3.1-4.7c0,0-9.6,8.6-13.2,10.8C4.4,22.4,4.4,7.5,4.4,7.5z"/>
		<g>
			<g>
				<path class="st2" d="M18,42.6h-0.9v-2.1h-2v2.1h-0.9V38h0.9v1.8h2V38H18V42.6z"/>
				<path class="st2" d="M18,42.7h-1v-2.1h-1.8v2.1h-1v-4.8h1v1.8H17v-1.8h1V42.7z M17.2,42.6h0.7V38h-0.7v1.8H15V38h-0.7v4.5H15
					v-2.1h2.1V42.6z"/>
			</g>
			<g>
				<path class="st2" d="M22.1,39.4c0-0.1-0.1-0.2-0.1-0.3c-0.1-0.1-0.1-0.2-0.2-0.2c-0.1-0.1-0.2-0.1-0.3-0.1s-0.2-0.1-0.4-0.1
					c-0.2,0-0.4,0-0.5,0.1c-0.2,0.1-0.3,0.2-0.4,0.3c-0.1,0.1-0.2,0.3-0.3,0.5c-0.1,0.2-0.1,0.4-0.1,0.7c0,0.3,0,0.5,0.1,0.7
					c0.1,0.2,0.1,0.4,0.3,0.5c0.1,0.1,0.2,0.2,0.4,0.3c0.2,0.1,0.3,0.1,0.5,0.1c0.3,0,0.5-0.1,0.7-0.2c0.2-0.1,0.3-0.4,0.3-0.6H23
					c0,0.3-0.1,0.5-0.2,0.7c-0.1,0.2-0.2,0.4-0.4,0.5c-0.2,0.1-0.4,0.2-0.6,0.3c-0.2,0.1-0.5,0.1-0.7,0.1c-0.3,0-0.6-0.1-0.9-0.2
					c-0.3-0.1-0.5-0.3-0.7-0.5s-0.3-0.5-0.4-0.8c-0.1-0.3-0.2-0.6-0.2-1s0.1-0.7,0.2-1c0.1-0.3,0.3-0.5,0.4-0.8s0.4-0.4,0.7-0.5
					c0.3-0.1,0.6-0.2,0.9-0.2c0.2,0,0.5,0,0.7,0.1c0.2,0.1,0.4,0.2,0.6,0.3c0.2,0.1,0.3,0.3,0.4,0.5c0.1,0.2,0.2,0.4,0.2,0.6
					L22.1,39.4L22.1,39.4z"/>
				<path class="st2" d="M21.1,42.8c-0.3,0-0.7-0.1-0.9-0.2c-0.3-0.1-0.5-0.3-0.7-0.5c-0.2-0.2-0.3-0.5-0.5-0.8
					c-0.1-0.3-0.2-0.6-0.2-1c0-0.4,0.1-0.7,0.2-1c0.1-0.3,0.3-0.6,0.5-0.8s0.4-0.4,0.7-0.5c0.3-0.1,0.6-0.2,0.9-0.2
					c0.2,0,0.5,0,0.7,0.1c0.2,0.1,0.4,0.2,0.6,0.3c0.2,0.1,0.3,0.3,0.4,0.5c0.1,0.2,0.2,0.4,0.2,0.7l0,0.1h-1l0-0.1
					c0-0.1-0.1-0.2-0.1-0.3c-0.1-0.1-0.1-0.2-0.2-0.2c-0.1-0.1-0.2-0.1-0.3-0.1c-0.1,0-0.2,0-0.3,0c-0.2,0-0.4,0-0.5,0.1
					c-0.1,0.1-0.3,0.2-0.4,0.3c-0.1,0.1-0.2,0.3-0.2,0.5c-0.1,0.2-0.1,0.4-0.1,0.7c0,0.3,0,0.5,0.1,0.7c0.1,0.2,0.1,0.4,0.2,0.5
					c0.1,0.1,0.2,0.2,0.4,0.3c0.1,0.1,0.3,0.1,0.5,0.1c0.3,0,0.5-0.1,0.7-0.2c0.2-0.1,0.3-0.3,0.3-0.6l0-0.1h1l0,0.1
					c0,0.3-0.1,0.5-0.2,0.7c-0.1,0.2-0.3,0.4-0.4,0.5c-0.2,0.1-0.4,0.3-0.6,0.3C21.6,42.8,21.3,42.8,21.1,42.8z M21.1,38
					c-0.3,0-0.6,0.1-0.9,0.2s-0.5,0.3-0.7,0.5c-0.2,0.2-0.3,0.4-0.4,0.7c-0.1,0.3-0.2,0.6-0.2,1c0,0.4,0,0.7,0.1,1
					c0.1,0.3,0.2,0.5,0.4,0.7c0.2,0.2,0.4,0.4,0.7,0.5c0.3,0.1,0.6,0.2,0.9,0.2c0.2,0,0.5,0,0.7-0.1c0.2-0.1,0.4-0.2,0.6-0.3
					c0.2-0.1,0.3-0.3,0.4-0.5c0.1-0.2,0.2-0.4,0.2-0.6h-0.7c-0.1,0.3-0.2,0.5-0.4,0.6c-0.2,0.2-0.4,0.2-0.7,0.2
					c-0.2,0-0.4,0-0.6-0.1c-0.2-0.1-0.3-0.2-0.4-0.3s-0.2-0.3-0.3-0.5c-0.1-0.2-0.1-0.5-0.1-0.7c0-0.3,0-0.5,0.1-0.7
					c0.1-0.2,0.2-0.4,0.3-0.5c0.1-0.1,0.3-0.3,0.4-0.3c0.2-0.1,0.4-0.1,0.6-0.1c0.1,0,0.3,0,0.4,0.1c0.1,0,0.2,0.1,0.3,0.2
					c0.1,0.1,0.2,0.2,0.2,0.3c0.1,0.1,0.1,0.2,0.1,0.3h0.7c0-0.2-0.1-0.4-0.2-0.5c-0.1-0.2-0.2-0.3-0.4-0.5
					c-0.2-0.1-0.3-0.2-0.6-0.3C21.5,38,21.3,38,21.1,38z"/>
			</g>
			<g>
				<path class="st2" d="M28.4,42.6h-0.8v-3l-1,3h-0.7l-1-3v3h-0.8V38h1.1l1.1,3.3l1.1-3.3h1.1C28.4,38,28.4,42.6,28.4,42.6z"/>
				<path class="st2" d="M28.4,42.7h-1v-2.6l-0.9,2.6h-0.8l-0.9-2.6v2.6h-1v-4.8h1.3l1,3.2l1-3.2h1.3L28.4,42.7L28.4,42.7z
					 M27.6,42.6h0.7V38h-1l-1.1,3.5L25,38h-1v4.5h0.7v-2.9l0.1,0l1,2.9h0.6l1-2.9l0.1,0V42.6z"/>
			</g>
		</g>
	</g>
	<g>
		<path class="st0" d="M66.4,24.4h-4.6v-8.1h-6.9v8.1h-4.7V5.1h4.7v7.7h6.9V5.1h4.6V24.4z"/>
		<path class="st0" d="M74,24.4h-4.6V5.1H74V24.4z"/>
		<path class="st0" d="M82.9,5.1l4.3,13.5l4.3-13.5h6.1v19.3H93v-4.5l0.5-9.2l-4.7,13.8h-3.1L81,10.6l0.5,9.3v4.5h-4.7V5.1H82.9z"/>
		<path class="st0" d="M111.5,20.8h-6.4l-1.1,3.6h-5l7.1-19.3h4.4l7.1,19.3h-5L111.5,20.8z M106.2,17.2h4.2l-2.1-6.7L106.2,17.2z"/>
		<path class="st0" d="M123.3,20.8h8.1v3.6h-12.8V5.1h4.7C123.3,5.1,123.3,20.8,123.3,20.8z"/>
		<path class="st0" d="M144.3,20.8h-6.4l-1.1,3.6h-5l7.1-19.3h4.4l7.1,19.3h-5L144.3,20.8z M139,17.2h4.2l-2.1-6.7L139,17.2z"/>
		<path class="st0" d="M156.5,13.5l3.6-8.4h5l-6.2,12.4v6.9h-4.7v-6.9l-6.2-12.4h5L156.5,13.5z"/>
		<path class="st0" d="M175.1,20.8h-6.4l-1.1,3.6h-5l7.1-19.3h4.4l7.1,19.3h-5L175.1,20.8z M169.8,17.2h4.2l-2.1-6.7L169.8,17.2z"/>
		<path class="st0" d="M198.4,24.4h-4.6l-6.9-12v12h-4.7V5.1h4.7l6.8,12v-12h4.6L198.4,24.4L198.4,24.4z"/>
	</g>
	<g>
		<path class="st1" d="M57.7,35c0,0.6-0.2,1.1-0.5,1.6c-0.3,0.5-0.7,0.8-1.2,1.1c-0.5,0.3-1.1,0.4-1.8,0.4c-1.1,0-2-0.4-2.6-1.1
			c-0.6-0.7-1-1.8-1-3.1v-0.4c0-0.8,0.1-1.6,0.4-2.2c0.3-0.6,0.7-1.1,1.2-1.5c0.5-0.3,1.2-0.5,1.9-0.5c1,0,1.8,0.3,2.5,0.8
			c0.6,0.5,1,1.3,1.1,2.3h-2c0-0.5-0.1-0.9-0.4-1.1c-0.2-0.2-0.6-0.3-1.1-0.3c-0.5,0-0.9,0.2-1.1,0.6c-0.2,0.4-0.4,1-0.4,1.8v0.6
			c0,0.9,0.1,1.6,0.3,2c0.2,0.4,0.6,0.6,1.2,0.6c0.5,0,0.8-0.1,1.1-0.3c0.2-0.2,0.4-0.6,0.4-1.1C55.7,35,57.7,35,57.7,35z"/>
		<path class="st1" d="M65.6,33.8c0,0.8-0.2,1.6-0.5,2.2c-0.3,0.6-0.7,1.1-1.3,1.5C63.3,37.8,62.7,38,62,38c-0.7,0-1.4-0.2-1.9-0.5
			c-0.6-0.3-1-0.8-1.3-1.4c-0.3-0.6-0.5-1.3-0.5-2.2v-0.5c0-0.8,0.2-1.6,0.5-2.2c0.3-0.6,0.7-1.1,1.3-1.5c0.6-0.4,1.2-0.5,1.9-0.5
			c0.7,0,1.3,0.2,1.9,0.5c0.6,0.3,1,0.8,1.3,1.5s0.5,1.4,0.5,2.2C65.6,33.4,65.6,33.8,65.6,33.8z M63.6,33.4c0-0.9-0.1-1.5-0.4-1.9
			c-0.3-0.4-0.7-0.7-1.2-0.7c-1,0-1.6,0.8-1.6,2.3l0,0.6c0,0.8,0.1,1.5,0.4,1.9c0.3,0.5,0.7,0.7,1.2,0.7c0.5,0,0.9-0.2,1.2-0.7
			c0.3-0.4,0.4-1.1,0.4-1.9L63.6,33.4L63.6,33.4z"/>
		<path class="st1" d="M68.5,36.3h3.5v1.6h-5.6v-8.6h2L68.5,36.3L68.5,36.3z"/>
		<path class="st1" d="M74.8,36.3h3.5v1.6h-5.6v-8.6h2V36.3z"/>
		<path class="st1" d="M84.2,34.2H81v2.1h3.8v1.6H79v-8.6h5.8v1.6H81v1.8h3.2V34.2z"/>
		<path class="st1" d="M92.3,36.8c-0.3,0.4-0.8,0.6-1.4,0.9c-0.6,0.2-1.3,0.3-2,0.3c-1.1,0-2-0.3-2.6-1c-0.7-0.7-1-1.6-1.1-2.9
			l0-0.7c0-0.8,0.1-1.6,0.4-2.2c0.3-0.6,0.7-1.1,1.3-1.5c0.5-0.3,1.2-0.5,1.9-0.5c1,0,1.9,0.2,2.4,0.7c0.6,0.5,0.9,1.2,1,2.2h-2
			c-0.1-0.5-0.2-0.8-0.4-1c-0.2-0.2-0.6-0.3-1-0.3c-0.5,0-0.9,0.2-1.2,0.7s-0.4,1.1-0.4,1.9v0.5c0,0.9,0.1,1.5,0.4,1.9
			c0.3,0.4,0.7,0.6,1.4,0.6c0.5,0,0.9-0.1,1.2-0.4v-1.3h-1.4v-1.4h3.4L92.3,36.8L92.3,36.8z"/>
		<path class="st1" d="M98.6,34.2h-3.2v2.1h3.8v1.6h-5.8v-8.6h5.8v1.6h-3.8v1.8h3.2V34.2z"/>
		<path class="st1" d="M109.7,33.8c0,0.8-0.2,1.6-0.5,2.2c-0.3,0.6-0.7,1.1-1.3,1.5c-0.6,0.3-1.2,0.5-1.9,0.5s-1.4-0.2-1.9-0.5
			c-0.6-0.3-1-0.8-1.3-1.4c-0.3-0.6-0.5-1.3-0.5-2.2v-0.5c0-0.8,0.2-1.6,0.5-2.2c0.3-0.6,0.7-1.1,1.3-1.5c0.6-0.4,1.2-0.5,1.9-0.5
			c0.7,0,1.3,0.2,1.9,0.5c0.6,0.3,1,0.8,1.3,1.5c0.3,0.6,0.5,1.4,0.5,2.2L109.7,33.8L109.7,33.8z M107.7,33.4c0-0.9-0.1-1.5-0.4-1.9
			c-0.3-0.4-0.7-0.7-1.2-0.7c-1,0-1.6,0.8-1.6,2.3l0,0.6c0,0.8,0.1,1.5,0.4,1.9c0.3,0.5,0.7,0.7,1.2,0.7c0.5,0,0.9-0.2,1.2-0.7
			c0.3-0.4,0.4-1.1,0.4-1.9L107.7,33.4L107.7,33.4z"/>
		<path class="st1" d="M115.9,34.5h-3.3v3.4h-2v-8.6h5.6v1.6h-3.6v2h3.3C115.9,32.9,115.9,34.5,115.9,34.5z"/>
		<path class="st1" d="M122.4,29.3l1.9,6l1.9-6h2.7v8.6h-2v-2l0.2-4.1l-2,6.1h-1.3l-2-6.1l0.2,4.1v2h-2v-8.6H122.4z"/>
		<path class="st1" d="M134.8,36.3H132l-0.5,1.6h-2.2l3.1-8.6h1.9l3.1,8.6h-2.2L134.8,36.3z M132.5,34.7h1.8l-0.9-3L132.5,34.7z"/>
		<path class="st1" d="M144.9,37.9h-2l-3-5.3v5.3h-2v-8.6h2l3,5.3v-5.3h2V37.9z"/>
		<path class="st1" d="M150.9,36.3h-2.8l-0.5,1.6h-2.2l3.1-8.6h1.9l3.1,8.6h-2.2L150.9,36.3z M148.6,34.7h1.8l-0.9-3L148.6,34.7z"/>
		<path class="st1" d="M160.8,36.8c-0.3,0.4-0.8,0.6-1.4,0.9c-0.6,0.2-1.3,0.3-2,0.3c-1.1,0-2-0.3-2.6-1c-0.7-0.7-1-1.6-1.1-2.9
			l0-0.7c0-0.8,0.1-1.6,0.4-2.2c0.3-0.6,0.7-1.1,1.3-1.5c0.5-0.3,1.2-0.5,1.9-0.5c1.1,0,1.9,0.2,2.4,0.7c0.6,0.5,0.9,1.2,1,2.2h-2
			c-0.1-0.5-0.2-0.8-0.4-1c-0.2-0.2-0.6-0.3-1-0.3c-0.5,0-0.9,0.2-1.2,0.7c-0.3,0.4-0.4,1.1-0.4,1.9v0.5c0,0.9,0.1,1.5,0.4,1.9
			c0.3,0.4,0.7,0.6,1.4,0.6c0.5,0,0.9-0.1,1.2-0.4v-1.3h-1.4v-1.4h3.4L160.8,36.8L160.8,36.8z"/>
		<path class="st1" d="M167,34.2h-3.2v2.1h3.8v1.6h-5.8v-8.6h5.8v1.6h-3.8v1.8h3.2L167,34.2L167,34.2z"/>
		<path class="st1" d="M170.9,29.3l1.9,6l1.9-6h2.7v8.6h-2v-2l0.2-4.1l-2,6.1h-1.3l-2-6.1l0.2,4.1v2h-2v-8.6H170.9z"/>
		<path class="st1" d="M183.7,34.2h-3.2v2.1h3.8v1.6h-5.8v-8.6h5.8v1.6h-3.8v1.8h3.2L183.7,34.2L183.7,34.2z"/>
		<path class="st1" d="M192,37.9h-2l-3-5.3v5.3h-2v-8.6h2l3,5.3v-5.3h2L192,37.9L192,37.9z"/>
		<path class="st1" d="M199.5,30.9H197v7h-2v-7h-2.5v-1.6h7L199.5,30.9L199.5,30.9z"/>
	</g>
	<g>
		<path d="M58.8,43.6h-2V49h-1.1v-5.4h-1.9v-0.9h5V43.6z"/>
		<path d="M64.1,42.7v4.2c0,0.7-0.2,1.2-0.6,1.6c-0.4,0.4-1,0.6-1.7,0.6c-0.7,0-1.3-0.2-1.7-0.6c-0.4-0.4-0.6-0.9-0.6-1.6v-4.2h1.1
			v4.2c0,0.4,0.1,0.7,0.3,1c0.2,0.2,0.5,0.3,0.9,0.3c0.8,0,1.3-0.4,1.3-1.3v-4.2L64.1,42.7L64.1,42.7z"/>
		<path d="M69.6,46.6h-1.2V49h-1.1v-6.3h2.2c0.7,0,1.3,0.2,1.7,0.5c0.4,0.3,0.6,0.8,0.6,1.4c0,0.4-0.1,0.8-0.3,1.1
			c-0.2,0.3-0.5,0.5-0.9,0.7l1.4,2.6V49h-1.2L69.6,46.6z M68.3,45.7h1.1c0.4,0,0.7-0.1,0.9-0.3c0.2-0.2,0.3-0.4,0.3-0.8
			c0-0.3-0.1-0.6-0.3-0.8c-0.2-0.2-0.5-0.3-0.9-0.3h-1.2L68.3,45.7L68.3,45.7z"/>
		<path d="M74.6,49.1c-0.7,0-1.2-0.2-1.6-0.6c-0.4-0.4-0.6-1-0.6-1.7v-0.1c0-0.5,0.1-0.9,0.3-1.3c0.2-0.4,0.4-0.7,0.8-0.9
			c0.3-0.2,0.7-0.3,1.1-0.3c0.6,0,1.1,0.2,1.5,0.6c0.3,0.4,0.5,1,0.5,1.7V47h-3.1c0,0.4,0.2,0.7,0.4,0.9c0.2,0.2,0.5,0.3,0.9,0.3
			c0.5,0,0.9-0.2,1.2-0.6l0.6,0.5c-0.2,0.3-0.4,0.5-0.8,0.7C75.4,49,75,49.1,74.6,49.1z M74.5,45.1c-0.3,0-0.5,0.1-0.7,0.3
			c-0.2,0.2-0.3,0.5-0.3,0.8h2v-0.1c0-0.4-0.1-0.6-0.3-0.8C75,45.2,74.8,45.1,74.5,45.1z"/>
		<path d="M79.1,48.2c0.3,0,0.5-0.1,0.7-0.2c0.2-0.2,0.3-0.3,0.3-0.6h1c0,0.3-0.1,0.6-0.3,0.8c-0.2,0.3-0.4,0.5-0.7,0.6
			c-0.3,0.1-0.6,0.2-0.9,0.2c-0.7,0-1.2-0.2-1.6-0.6c-0.4-0.4-0.6-1-0.6-1.8v-0.1c0-0.7,0.2-1.3,0.6-1.7c0.4-0.4,0.9-0.6,1.6-0.6
			c0.6,0,1,0.2,1.4,0.5C80.8,45,81,45.5,81,46h-1c0-0.3-0.1-0.5-0.3-0.7c-0.2-0.2-0.4-0.3-0.7-0.3c-0.3,0-0.6,0.1-0.8,0.4
			c-0.2,0.2-0.3,0.6-0.3,1.1v0.2c0,0.5,0.1,0.9,0.3,1.1C78.5,48.1,78.8,48.2,79.1,48.2z"/>
		<path d="M81.5,46.6c0-0.5,0.1-0.9,0.3-1.2c0.2-0.4,0.4-0.6,0.8-0.8c0.3-0.2,0.7-0.3,1.1-0.3c0.6,0,1.1,0.2,1.5,0.6
			c0.4,0.4,0.6,0.9,0.6,1.6l0,0.2c0,0.5-0.1,0.9-0.3,1.2c-0.2,0.4-0.4,0.6-0.8,0.8c-0.3,0.2-0.7,0.3-1.1,0.3c-0.7,0-1.2-0.2-1.6-0.7
			C81.7,48,81.5,47.4,81.5,46.6L81.5,46.6L81.5,46.6z M82.6,46.7c0,0.5,0.1,0.9,0.3,1.1c0.2,0.3,0.5,0.4,0.8,0.4
			c0.4,0,0.6-0.1,0.8-0.4c0.2-0.3,0.3-0.7,0.3-1.2c0-0.5-0.1-0.8-0.3-1.1c-0.2-0.3-0.5-0.4-0.8-0.4c-0.3,0-0.6,0.1-0.8,0.4
			C82.7,45.8,82.6,46.2,82.6,46.7z"/>
		<path d="M86.4,46.6c0-0.7,0.2-1.3,0.5-1.7c0.3-0.4,0.8-0.6,1.4-0.6c0.5,0,1,0.2,1.3,0.6l0-0.5h0.9v4.5c0,0.6-0.2,1.1-0.6,1.5
			c-0.4,0.4-0.9,0.5-1.5,0.5c-0.3,0-0.7-0.1-1-0.2c-0.3-0.1-0.6-0.3-0.7-0.6l0.5-0.6c0.3,0.4,0.7,0.6,1.2,0.6c0.3,0,0.6-0.1,0.8-0.3
			c0.2-0.2,0.3-0.5,0.3-0.8v-0.3c-0.3,0.3-0.7,0.5-1.2,0.5c-0.5,0-1-0.2-1.3-0.7C86.6,48,86.4,47.4,86.4,46.6z M87.5,46.7
			c0,0.5,0.1,0.8,0.3,1.1c0.2,0.3,0.5,0.4,0.8,0.4c0.4,0,0.7-0.2,0.9-0.5v-2.1c-0.2-0.4-0.5-0.5-0.9-0.5c-0.3,0-0.6,0.1-0.8,0.4
			C87.6,45.8,87.5,46.2,87.5,46.7z"/>
		<path d="M92.5,44.3l0,0.5c0.3-0.4,0.8-0.6,1.4-0.6c1,0,1.5,0.6,1.5,1.7V49h-1.1v-3c0-0.3-0.1-0.5-0.2-0.7
			c-0.1-0.1-0.3-0.2-0.6-0.2c-0.4,0-0.7,0.2-0.9,0.6V49h-1.1v-4.7C91.5,44.3,92.5,44.3,92.5,44.3z"/>
		<path d="M96.3,43.1c0-0.2,0.1-0.3,0.2-0.4c0.1-0.1,0.2-0.2,0.4-0.2s0.3,0.1,0.4,0.2c0.1,0.1,0.2,0.2,0.2,0.4
			c0,0.2-0.1,0.3-0.2,0.4c-0.1,0.1-0.3,0.2-0.4,0.2s-0.3-0.1-0.4-0.2C96.4,43.4,96.3,43.3,96.3,43.1z M97.4,49h-1.1v-4.7h1.1V49z"/>
		<path d="M99.6,48.2h2.5V49h-3.8v-0.7l2.4-3.1h-2.3v-0.8h3.7V45L99.6,48.2z"/>
		<path d="M104.8,49.1c-0.7,0-1.2-0.2-1.6-0.6c-0.4-0.4-0.6-1-0.6-1.7v-0.1c0-0.5,0.1-0.9,0.3-1.3c0.2-0.4,0.4-0.7,0.8-0.9
			c0.3-0.2,0.7-0.3,1.1-0.3c0.6,0,1.1,0.2,1.5,0.6c0.3,0.4,0.5,1,0.5,1.7V47h-3.1c0,0.4,0.2,0.7,0.4,0.9c0.2,0.2,0.5,0.3,0.9,0.3
			c0.5,0,0.9-0.2,1.2-0.6l0.6,0.5c-0.2,0.3-0.4,0.5-0.8,0.7C105.5,49,105.2,49.1,104.8,49.1z M104.7,45.1c-0.3,0-0.5,0.1-0.7,0.3
			c-0.2,0.2-0.3,0.5-0.3,0.8h2v-0.1c0-0.4-0.1-0.6-0.3-0.8C105.2,45.2,105,45.1,104.7,45.1z"/>
		<path d="M107.2,46.6c0-0.7,0.2-1.3,0.5-1.7c0.3-0.4,0.8-0.7,1.3-0.7c0.5,0,0.9,0.2,1.2,0.5v-2.4h1.1V49h-1l-0.1-0.5
			c-0.3,0.4-0.7,0.6-1.3,0.6c-0.5,0-1-0.2-1.3-0.7C107.3,48,107.2,47.4,107.2,46.6z M108.2,46.7c0,0.5,0.1,0.8,0.3,1.1
			c0.2,0.3,0.4,0.4,0.8,0.4c0.4,0,0.7-0.2,0.9-0.6v-2c-0.2-0.4-0.5-0.6-0.9-0.6c-0.3,0-0.6,0.1-0.8,0.4
			C108.3,45.8,108.2,46.2,108.2,46.7z"/>
		<path d="M139.5,42.7l1.8,4.8l1.8-4.8h1.4V49h-1.1v-2.1l0.1-2.8l-1.9,4.9h-0.8l-1.9-4.9l0.1,2.8V49h-1.1v-6.3L139.5,42.7
			L139.5,42.7z"/>
		<path d="M150.7,46c0,0.6-0.1,1.2-0.3,1.6c-0.2,0.5-0.5,0.8-0.9,1.1c-0.4,0.3-0.9,0.4-1.4,0.4c-0.5,0-1-0.1-1.4-0.4
			c-0.4-0.2-0.7-0.6-0.9-1.1c-0.2-0.5-0.3-1-0.3-1.6v-0.4c0-0.6,0.1-1.2,0.3-1.6c0.2-0.5,0.5-0.8,0.9-1.1c0.4-0.2,0.9-0.4,1.4-0.4
			c0.5,0,1,0.1,1.4,0.4c0.4,0.2,0.7,0.6,0.9,1.1c0.2,0.5,0.3,1,0.3,1.6L150.7,46L150.7,46z M149.6,45.7c0-0.7-0.1-1.2-0.4-1.6
			c-0.3-0.4-0.6-0.6-1.1-0.6c-0.5,0-0.8,0.2-1.1,0.6c-0.3,0.4-0.4,0.9-0.4,1.6V46c0,0.7,0.1,1.2,0.4,1.6c0.3,0.4,0.6,0.6,1.1,0.6
			c0.5,0,0.9-0.2,1.1-0.6c0.3-0.4,0.4-0.9,0.4-1.6V45.7z"/>
		<path d="M155.4,46.2h-2.6v1.9h3V49h-4.1v-6.3h4.1v0.9h-3v1.7h2.6L155.4,46.2L155.4,46.2z"/>
		<path d="M162.2,47.5h-2.4l-0.5,1.5h-1.1l2.4-6.3h1l2.4,6.3h-1.1L162.2,47.5z M160,46.6h1.8L161,44L160,46.6z"/>
		<path d="M168.2,46.7c0,0.7-0.2,1.3-0.5,1.7c-0.3,0.4-0.8,0.6-1.3,0.6c-0.5,0-0.9-0.2-1.2-0.5v2.2h-1.1v-6.5h1l0,0.5
			c0.3-0.4,0.7-0.6,1.3-0.6c0.6,0,1,0.2,1.3,0.6C168.1,45.3,168.2,45.9,168.2,46.7L168.2,46.7L168.2,46.7z M167.2,46.6
			c0-0.5-0.1-0.8-0.3-1.1c-0.2-0.3-0.5-0.4-0.8-0.4c-0.4,0-0.7,0.2-0.9,0.5v2.1c0.2,0.4,0.5,0.5,0.9,0.5c0.3,0,0.6-0.1,0.8-0.4
			C167.1,47.6,167.2,47.2,167.2,46.6z"/>
		<path d="M173.1,46.7c0,0.7-0.2,1.3-0.5,1.7c-0.3,0.4-0.8,0.6-1.3,0.6c-0.5,0-0.9-0.2-1.2-0.5v2.2H169v-6.5h1l0,0.5
			c0.3-0.4,0.7-0.6,1.3-0.6c0.6,0,1,0.2,1.3,0.6C172.9,45.3,173.1,45.9,173.1,46.7L173.1,46.7z M172,46.6c0-0.5-0.1-0.8-0.3-1.1
			c-0.2-0.3-0.5-0.4-0.8-0.4c-0.4,0-0.7,0.2-0.9,0.5v2.1c0.2,0.4,0.5,0.5,0.9,0.5c0.3,0,0.6-0.1,0.8-0.4
			C171.9,47.6,172,47.2,172,46.6z"/>
		<path d="M176.3,45.3c-0.1,0-0.3,0-0.4,0c-0.5,0-0.8,0.2-1,0.6V49h-1.1v-4.7h1l0,0.5c0.3-0.4,0.6-0.6,1.1-0.6c0.2,0,0.3,0,0.4,0.1
			L176.3,45.3z"/>
		<path d="M176.5,46.6c0-0.5,0.1-0.9,0.3-1.2c0.2-0.4,0.4-0.6,0.8-0.8c0.3-0.2,0.7-0.3,1.1-0.3c0.6,0,1.1,0.2,1.5,0.6
			c0.4,0.4,0.6,0.9,0.6,1.6l0,0.2c0,0.5-0.1,0.9-0.3,1.2c-0.2,0.4-0.4,0.6-0.8,0.8c-0.3,0.2-0.7,0.3-1.1,0.3c-0.7,0-1.2-0.2-1.6-0.7
			C176.7,48,176.5,47.4,176.5,46.6L176.5,46.6L176.5,46.6z M177.5,46.7c0,0.5,0.1,0.9,0.3,1.1c0.2,0.3,0.5,0.4,0.8,0.4
			c0.4,0,0.6-0.1,0.8-0.4c0.2-0.3,0.3-0.7,0.3-1.2c0-0.5-0.1-0.8-0.3-1.1c-0.2-0.3-0.5-0.4-0.8-0.4c-0.3,0-0.6,0.1-0.8,0.4
			C177.6,45.8,177.5,46.2,177.5,46.7z"/>
		<path d="M183.2,47.7l1-3.3h1.1l-1.6,4.7h-0.9l-1.6-4.7h1.1L183.2,47.7z"/>
		<path d="M187.8,49.1c-0.7,0-1.2-0.2-1.6-0.6c-0.4-0.4-0.6-1-0.6-1.7v-0.1c0-0.5,0.1-0.9,0.3-1.3c0.2-0.4,0.4-0.7,0.8-0.9
			c0.3-0.2,0.7-0.3,1.1-0.3c0.6,0,1.1,0.2,1.5,0.6c0.3,0.4,0.5,1,0.5,1.7V47h-3.1c0,0.4,0.2,0.7,0.4,0.9c0.2,0.2,0.5,0.3,0.9,0.3
			c0.5,0,0.9-0.2,1.2-0.6l0.6,0.5c-0.2,0.3-0.4,0.5-0.8,0.7C188.5,49,188.2,49.1,187.8,49.1z M187.7,45.1c-0.3,0-0.5,0.1-0.7,0.3
			c-0.2,0.2-0.3,0.5-0.3,0.8h2v-0.1c0-0.4-0.1-0.6-0.3-0.8C188.2,45.2,188,45.1,187.7,45.1z"/>
		<path d="M190.2,46.6c0-0.7,0.2-1.3,0.5-1.7c0.3-0.4,0.8-0.7,1.3-0.7c0.5,0,0.9,0.2,1.2,0.5v-2.4h1.1V49h-1l-0.1-0.5
			c-0.3,0.4-0.7,0.6-1.3,0.6c-0.5,0-1-0.2-1.3-0.7C190.3,48,190.2,47.4,190.2,46.6z M191.2,46.7c0,0.5,0.1,0.8,0.3,1.1
			c0.2,0.3,0.4,0.4,0.8,0.4c0.4,0,0.7-0.2,0.9-0.6v-2c-0.2-0.4-0.5-0.6-0.9-0.6c-0.3,0-0.6,0.1-0.8,0.4
			C191.3,45.8,191.2,46.2,191.2,46.7z"/>
	</g>
	<circle class="st1" cx="49.8" cy="46.5" r="1.6"/>
	<circle class="st1" cx="132.6" cy="46.4" r="1.6"/>
</g>
</svg>
